<svg viewBox="-244.1957104557625 -101.99999999999999 839.5308310991956 199.99999999999997"
    xmlns="http://www.w3.org/2000/svg" xmlns:xlink="http://www.w3.org/1999/xlink" version="1.1">
    <g transform="translate(-6.434316353885921 45.659517426273474) scale(1.8617813523979745)" fill="#FFFFFF">
        <g id="line1">
            <path
                d="M44.640-44.856C44.640-45.624 44.280-46.224 43.560-46.656C41.496-48.048 39.180-49.128 36.612-49.896C34.044-50.664 31.416-51.048 28.728-51.048C24.072-51.048 19.824-49.932 15.984-47.700C12.144-45.468 9.096-42.372 6.840-38.412C4.584-34.452 3.456-30.048 3.456-25.200C3.456-20.160 4.596-15.672 6.876-11.736C9.156-7.800 12.228-4.740 16.092-2.556C19.956-0.372 24.168 0.720 28.728 0.720C31.320 0.720 33.984 0.300 36.720-0.540C39.456-1.380 41.760-2.424 43.632-3.672C44.304-4.056 44.640-4.632 44.640-5.400C44.640-5.928 44.472-6.384 44.136-6.768C43.704-7.344 43.152-7.632 42.480-7.632C42.048-7.632 41.640-7.512 41.256-7.272C37.464-4.776 33.288-3.528 28.728-3.528C24.888-3.528 21.396-4.428 18.252-6.228C15.108-8.028 12.624-10.572 10.800-13.860C8.976-17.148 8.064-20.928 8.064-25.200C8.064-29.376 8.964-33.108 10.764-36.396C12.564-39.684 15.036-42.240 18.180-44.064C21.324-45.888 24.840-46.800 28.728-46.800C33.288-46.800 37.488-45.528 41.328-42.984C41.711-42.744 42.095-42.624 42.480-42.624C43.152-42.624 43.704-42.888 44.136-43.416C44.472-43.944 44.640-44.424 44.640-44.856Z">
            </path>
            <path
                d="M87.926-8.640C89.510-11.568 90.302-14.832 90.302-18.432C90.302-22.032 89.510-25.296 87.926-28.224C86.342-31.152 84.158-33.456 81.374-35.136C78.590-36.816 75.494-37.656 72.086-37.656C68.678-37.656 65.582-36.816 62.798-35.136C60.014-33.456 57.830-31.152 56.246-28.224C54.662-25.296 53.870-22.032 53.870-18.432C53.870-14.832 54.662-11.568 56.246-8.640C57.830-5.712 60.014-3.420 62.798-1.764C65.582-0.108 68.678 0.720 72.086 0.720C75.494 0.720 78.590-0.108 81.374-1.764C84.158-3.420 86.342-5.712 87.926-8.640ZM84.182-26.208C85.382-23.904 85.982-21.312 85.982-18.432C85.982-15.552 85.382-12.960 84.182-10.656C82.982-8.352 81.314-6.552 79.178-5.256C77.042-3.960 74.678-3.312 72.086-3.312C69.494-3.312 67.142-3.972 65.030-5.292C62.918-6.612 61.250-8.424 60.026-10.728C58.802-13.032 58.190-15.600 58.190-18.432C58.190-21.312 58.802-23.904 60.026-26.208C61.250-28.512 62.918-30.324 65.030-31.644C67.142-32.964 69.494-33.624 72.086-33.624C74.678-33.624 77.042-32.964 79.178-31.644C81.314-30.324 82.982-28.512 84.182-26.208Z">
            </path>
            <path
                d="M154.073-33.084C152.033-35.748 148.853-37.080 144.533-37.080C141.797-37.080 139.085-36.288 136.397-34.704C133.709-33.120 131.861-31.272 130.853-29.160C129.989-31.752 128.549-33.720 126.533-35.064C124.517-36.408 122.117-37.080 119.333-37.080C116.885-37.080 114.557-36.432 112.349-35.136C110.141-33.840 108.389-32.208 107.093-30.240L107.093-34.416C107.093-35.040 106.889-35.556 106.481-35.964C106.073-36.372 105.557-36.576 104.933-36.576C104.309-36.576 103.793-36.372 103.385-35.964C102.977-35.556 102.773-35.040 102.773-34.416L102.773-2.160C102.773-1.536 102.977-1.020 103.385-0.612C103.793-0.204 104.309 0 104.933 0C105.557 0 106.073-0.204 106.481-0.612C106.889-1.020 107.093-1.536 107.093-2.160L107.093-22.536C107.093-24.408 107.633-26.148 108.713-27.756C109.793-29.364 111.209-30.648 112.961-31.608C114.713-32.568 116.573-33.048 118.541-33.048C121.613-33.048 123.869-32.076 125.309-30.132C126.749-28.188 127.469-25.656 127.469-22.536L127.469-2.160C127.469-1.536 127.673-1.020 128.081-0.612C128.489-0.204 129.005 0 129.629 0C130.253 0 130.769-0.204 131.177-0.612C131.585-1.020 131.789-1.536 131.789-2.160L131.789-22.320C131.789-24.240 132.341-26.028 133.445-27.684C134.549-29.340 136.001-30.648 137.801-31.608C139.601-32.568 141.509-33.048 143.525-33.048C146.693-33.048 149.033-32.052 150.545-30.060C152.057-28.068 152.813-25.488 152.813-22.320L152.813-2.160C152.813-1.536 153.017-1.020 153.425-0.612C153.833-0.204 154.349 0 154.973 0C155.597 0 156.113-0.204 156.521-0.612C156.929-1.020 157.133-1.536 157.133-2.160L157.133-22.536C157.133-26.904 156.113-30.420 154.073-33.084Z">
            </path>
            <path
                d="M177.559-1.008C180.223 0.144 183.283 0.720 186.739 0.720C189.955 0.720 192.823 0.144 195.343-1.008C197.863-2.160 199.831-3.732 201.247-5.724C202.663-7.716 203.371-9.936 203.371-12.384C203.371-15.552 202.687-18.108 201.319-20.052C199.951-21.996 198.187-23.496 196.027-24.552C193.867-25.608 191.083-26.640 187.675-27.648C183.739-28.896 180.715-30.264 178.603-31.752C176.491-33.240 175.435-35.376 175.435-38.160C175.435-40.848 176.539-42.972 178.747-44.532C180.955-46.092 183.811-46.872 187.315-46.872C189.667-46.872 191.923-46.392 194.083-45.432C196.243-44.472 197.971-43.224 199.267-41.688C199.603-41.352 200.011-41.184 200.491-41.184C201.067-41.184 201.595-41.412 202.075-41.868C202.555-42.324 202.795-42.816 202.795-43.344C202.795-43.920 202.435-44.616 201.715-45.432C200.179-47.256 198.127-48.660 195.559-49.644C192.991-50.628 190.243-51.120 187.315-51.120C184.099-51.120 181.255-50.556 178.783-49.428C176.311-48.300 174.391-46.752 173.023-44.784C171.655-42.816 170.971-40.560 170.971-38.016C170.971-35.184 171.619-32.844 172.915-30.996C174.211-29.148 175.903-27.672 177.991-26.568C180.079-25.464 182.659-24.456 185.731-23.544C188.563-22.632 190.891-21.744 192.715-20.880C194.539-20.016 196.015-18.900 197.143-17.532C198.271-16.164 198.835-14.448 198.835-12.384C198.835-9.744 197.695-7.608 195.415-5.976C193.135-4.344 190.267-3.528 186.811-3.528C181.195-3.528 176.515-5.592 172.771-9.720C172.291-10.200 171.763-10.440 171.187-10.440C170.611-10.440 170.095-10.200 169.639-9.720C169.183-9.240 168.955-8.712 168.955-8.136C168.955-7.464 169.243-6.888 169.819-6.408C172.315-3.960 174.895-2.160 177.559-1.008Z">
            </path>
            <path
                d="M247.558-36.144C247.150-36.576 246.634-36.792 246.010-36.792C245.386-36.792 244.870-36.576 244.462-36.144C244.054-35.712 243.850-35.184 243.850-34.560L243.850-30.096C242.650-32.352 240.850-34.176 238.450-35.568C236.050-36.960 233.410-37.656 230.530-37.656C227.410-37.656 224.566-36.840 221.998-35.208C219.430-33.576 217.402-31.308 215.914-28.404C214.426-25.500 213.682-22.224 213.682-18.576C213.682-14.928 214.414-11.640 215.878-8.712C217.342-5.784 219.358-3.480 221.926-1.800C224.494-0.120 227.386 0.720 230.602 0.720C233.434 0.720 236.050-0.024 238.450-1.512C240.850-3.000 242.650-4.824 243.850-6.984L243.850-2.160C243.850-1.536 244.054-1.020 244.462-0.612C244.869-0.204 245.385 0 246.010 0C246.633 0 247.149-0.204 247.558-0.612C247.966-1.020 248.170-1.536 248.170-2.160L248.170-34.560C248.170-35.184 247.966-35.712 247.558-36.144ZM237.766-5.292C235.774-3.972 233.530-3.312 231.034-3.312C228.490-3.312 226.222-3.972 224.230-5.292C222.238-6.612 220.690-8.436 219.586-10.764C218.482-13.092 217.930-15.696 217.930-18.576C217.930-21.456 218.494-24.036 219.622-26.316C220.750-28.596 222.310-30.384 224.302-31.680C226.294-32.976 228.538-33.624 231.034-33.624C233.530-33.624 235.774-32.964 237.766-31.644C239.758-30.324 241.318-28.512 242.446-26.208C243.574-23.904 244.138-21.360 244.138-18.576C244.138-15.696 243.574-13.092 242.446-10.764C241.318-8.436 239.758-6.612 237.766-5.292Z">
            </path>
            <path
                d="M272.340-47.664C273.180-48.672 274.368-49.176 275.904-49.176C276.528-49.176 277.368-49.032 278.424-48.744C279.048-48.504 279.576-48.384 280.008-48.384C280.488-48.384 280.920-48.576 281.304-48.960C281.688-49.344 281.880-49.824 281.880-50.400C281.880-51.312 281.304-51.972 280.152-52.380C279-52.788 277.752-52.992 276.408-52.992C273.480-52.992 271.140-52.164 269.388-50.508C267.636-48.852 266.760-46.512 266.760-43.488L266.760-36.072L261.504-36.072C260.928-36.072 260.448-35.892 260.064-35.532C259.680-35.172 259.488-34.680 259.488-34.056C259.488-33.528 259.680-33.060 260.064-32.652C260.448-32.244 260.928-32.040 261.504-32.040L266.760-32.040L266.760-2.160C266.760-1.536 266.964-1.020 267.372-0.612C267.780-0.204 268.296 0 268.920 0C269.544 0 270.060-0.204 270.468-0.612C270.876-1.020 271.080-1.536 271.080-2.160L271.080-32.040L279.144-32.040C279.672-32.040 280.140-32.232 280.548-32.616C280.956-33.000 281.160-33.480 281.160-34.056C281.160-34.632 280.956-35.112 280.548-35.496C280.140-35.880 279.672-36.072 279.144-36.072L271.080-36.072L271.080-43.488C271.080-45.264 271.500-46.656 272.340-47.664Z">
            </path>
            <path
                d="M322.574-19.044C323.006-19.452 323.222-19.944 323.222-20.520C323.174-24.072 322.358-27.144 320.774-29.736C319.190-32.328 317.138-34.296 314.618-35.640C312.098-36.984 309.398-37.656 306.518-37.656C303.590-37.656 300.830-36.876 298.238-35.316C295.646-33.756 293.570-31.500 292.010-28.548C290.450-25.596 289.670-22.152 289.670-18.216C289.670-14.472 290.462-11.172 292.046-8.316C293.630-5.460 295.838-3.240 298.670-1.656C301.502-0.072 304.766 0.720 308.462 0.720C311.054 0.720 313.514 0.120 315.842-1.080C318.170-2.280 320.102-3.816 321.638-5.688C322.118-6.168 322.358-6.672 322.358-7.200C322.358-7.680 322.166-8.112 321.782-8.496C321.398-8.880 320.966-9.072 320.486-9.072C320.006-9.072 319.502-8.856 318.974-8.424C317.870-6.936 316.406-5.712 314.582-4.752C312.758-3.792 310.694-3.312 308.390-3.312C305.414-3.312 302.834-3.972 300.650-5.292C298.466-6.612 296.786-8.412 295.610-10.692C294.434-12.972 293.846-15.552 293.846-18.432L321.062-18.432C321.638-18.432 322.142-18.636 322.574-19.044ZM298.778-30.600C301.154-32.520 303.734-33.480 306.518-33.480C308.438-33.480 310.298-33.060 312.098-32.220C313.898-31.380 315.398-30.156 316.598-28.548C317.798-26.940 318.518-25.056 318.758-22.896L318.758-22.320L294.206-22.320C294.878-25.920 296.402-28.680 298.778-30.600Z">
            </path>
        </g>
    </g>
    <g transform="translate(-244.1957104557625 -101.99999999999999) scale(1.9999999999999998)" id="logomark">
        <g fill="#FFFFFF">
            <path
                d="M29.455 25.953a2.025 2.025 0 0 0-1.406.625L6.579 48.422c-.753.74-.755 2.1 0 2.844.752.743 2.112.73 2.845-.031l1.843-1.875v22.687c0 1.047.953 2 2 2h73.47c1.046 0 2-.953 2-2V49.36l1.843 1.875c.732.762 2.092.774 2.844.03.751-.742.749-2.102 0-2.843l-21.47-21.844c-.74-.75-2.102-.75-2.843 0l-8.969 9.094-8.718-9.094c-.744-.768-2.132-.768-2.875 0l-8.72 9.094-8.937-9.094c-.369-.39-.9-.62-1.437-.625zm0 4.844l7.594 7.781-9.47 9.875c-.85.723-.9 2.197-.093 2.969.806.772 2.285.664 2.969-.219l1.343-1.406v20.25h-16.53V45.266l14.187-14.47zm41.062 0l14.22 14.469v24.78H68.204V49.829l1.312 1.375c.72.761 2.083.814 2.844.094.76-.72.783-2.083.062-2.844l-9.5-9.906 7.594-7.75zM45.33 51.203h9.125c1.049 0 2 .952 2 2 0 1.049-.951 2.002-2 2h-8.906c-1.048.057-2.037-.859-2.094-1.906-.057-1.047.828-2.037 1.875-2.094zm2.125 9.375h5.094v9.469h-5.094v-9.469z"
                overflow="visible" color="#FFFFFF"></path>
        </g>
    </g>
</svg>