<svg viewBox="0 0 50 50" xmlns="http://www.w3.org/2000/svg" xmlns:xlink="http://www.w3.org/1999/xlink" version="1.1">
    <g transform="translate(0 0) scale(0.5)" id="lockup4-icon">
        <g fill="#232323">
            <path
                d="M29.455 25.953a2.025 2.025 0 0 0-1.406.625L6.579 48.422c-.753.74-.755 2.1 0 2.844.752.743 2.112.73 2.845-.031l1.843-1.875v22.687c0 1.047.953 2 2 2h73.47c1.046 0 2-.953 2-2V49.36l1.843 1.875c.732.762 2.092.774 2.844.03.751-.742.749-2.102 0-2.843l-21.47-21.844c-.74-.75-2.102-.75-2.843 0l-8.969 9.094-8.718-9.094c-.744-.768-2.132-.768-2.875 0l-8.72 9.094-8.937-9.094c-.369-.39-.9-.62-1.437-.625zm0 4.844l7.594 7.781-9.47 9.875c-.85.723-.9 2.197-.093 2.969.806.772 2.285.664 2.969-.219l1.343-1.406v20.25h-16.53V45.266l14.187-14.47zm41.062 0l14.22 14.469v24.78H68.204V49.829l1.312 1.375c.72.761 2.083.814 2.844.094.76-.72.783-2.083.062-2.844l-9.5-9.906 7.594-7.75zM45.33 51.203h9.125c1.049 0 2 .952 2 2 0 1.049-.951 2.002-2 2h-8.906c-1.048.057-2.037-.859-2.094-1.906-.057-1.047.828-2.037 1.875-2.094zm2.125 9.375h5.094v9.469h-5.094v-9.469z"
                overflow="visible" color="#232323"></path>
        </g>
    </g>
</svg>